<?xml version="1.0" encoding="UTF-8" standalone="no"?><svg xmlns="http://www.w3.org/2000/svg" xmlns:xlink="http://www.w3.org/1999/xlink" fill="#000000" height="432.1" preserveAspectRatio="xMidYMid meet" version="1" viewBox="-5.7 33.6 509.5 432.1" width="509.5" zoomAndPan="magnify"><g id="change1_1"><path d="M 8.566406 120.839844 C -5.667969 145.671875 0.40625 177.359375 8.332031 205.097656 C 16.253906 232.839844 25.628906 262.578125 16.761719 290.003906 C 14.082031 298.296875 9.757812 306.1875 9.132812 314.914062 C 7.9375 331.578125 21.011719 346.375 35.957031 352.320312 C 50.898438 358.265625 67.394531 357.46875 83.378906 357.140625 C 99.363281 356.8125 116.097656 357.226562 130.160156 365.175781 C 158.699219 381.308594 165.832031 421.496094 190.15625 443.945312 C 208.628906 460.996094 235.230469 465.6875 259.660156 462.277344 C 284.09375 458.871094 307 448.292969 329.523438 437.835938 C 362.886719 422.34375 396.503906 406.703125 426.230469 384.558594 C 453.871094 363.96875 478.246094 337.179688 491.035156 304.316406 C 503.828125 271.453125 503.699219 232.019531 485.628906 201.992188 C 470.800781 177.359375 444.164062 157.5625 443.367188 128.472656 C 442.898438 111.378906 451.992188 94.625 449.011719 77.808594 C 442.199219 39.402344 389.8125 33.628906 360.558594 37.867188 C 325.554688 42.9375 296.316406 63.546875 271.882812 89.171875 C 256.074219 105.746094 241.125 126.488281 217.414062 129.828125 C 182.082031 134.804688 146.0625 107.863281 113.777344 96.902344 C 78.988281 85.085938 30.199219 83.097656 8.566406 120.839844" fill="#93999e"/></g></svg>